PathFileType	4	(X/Y/Z)	D:\TRACE\v60_Jaco2_6-2-23\BothDRS_Motion3_1-platform.trc
DataRate	CameraRate	NumFrames	NumMarkers	Units	OrigDataRate	OrigDataStartFrame	OrigNumFrames
100.00	100.00	      72	5	mm	100.00	2626	      7000
Frame#	Time	Left_Front			Right_Front			Left_Aft			Right_Aft			Post			
		X1	Y1	Z1	X2	Y2	Z2	X3	Y3	Z3	X4	Y4	Z4	X5	Y5	Z5	

2626	26.250	-779.91101	91.53080	-626.11047	790.56494	89.50874	-603.15686	-710.69061	-46.68604	502.28268	703.27631	-60.22765	604.35577	13.99671	1418.70508	-774.57813	
2627	26.260	-779.84515	91.30195	-626.10419	790.58148	89.61586	-603.17010	-710.66144	-46.78384	502.28818	703.28516	-60.23281	604.36768	13.99144	1418.71252	-774.82489	
2628	26.270	-779.89795	91.29750	-626.16333	790.52222	89.57127	-603.19769	-710.75745	-46.77352	502.24170	703.24390	-60.22414	604.34985	13.88114	1418.71631	-774.96802	
2629	26.280	-779.90802	91.37032	-626.18268	790.48157	89.36693	-603.17889	-710.76575	-46.73296	502.24139	703.27618	-60.15719	604.33167	13.84262	1418.68701	-775.20587	
2630	26.290	-779.88245	91.34451	-626.20135	790.49329	89.43092	-603.21167	-710.72534	-46.62784	502.26022	703.23224	-60.15137	604.33453	13.85885	1418.67371	-775.44171	
2631	26.300	-779.96222	91.31660	-626.22577	790.55829	89.47984	-603.19202	-710.66583	-46.55130	502.25385	703.12268	-60.01863	604.35126	13.87227	1418.56677	-775.63568	
2632	26.310	-779.97723	91.24803	-626.30878	790.47498	89.30173	-603.28564	-710.69507	-46.42177	502.25220	703.10999	-59.90011	604.32941	13.88909	1418.43347	-775.76154	
2633	26.320	-780.01831	91.15096	-626.32483	790.40265	88.99180	-603.42224	-710.83075	-46.20415	502.12985	703.08197	-59.79817	604.30383	13.78442	1418.16760	-775.86536	
2634	26.330	-779.95215	90.99313	-626.34912	790.43646	88.87667	-603.43768	-710.88489	-46.14882	502.05197	703.00049	-59.62762	604.27435	13.80822	1417.84680	-775.85461	
2635	26.340	-779.90210	90.91093	-626.39355	790.48645	88.78326	-603.45630	-710.85229	-45.77971	502.12234	703.06256	-59.33287	604.27368	13.60276	1417.39905	-776.15509	
2636	26.350	-779.75598	90.57923	-626.79138	790.54218	88.60365	-603.49329	-710.77893	-45.52557	502.09549	703.25092	-59.09191	604.22852	13.89466	1417.00049	-776.74188	
2637	26.360	-779.88202	90.60257	-626.63397	790.61310	88.27834	-603.64758	-710.83081	-45.29399	502.03922	703.43140	-58.83391	604.11755	13.98802	1416.89014	-777.42682	
2638	26.370	-779.94116	90.28385	-626.82605	790.65314	88.07284	-603.72284	-710.86584	-45.11359	501.93463	703.44757	-58.64569	604.03180	14.04887	1416.81360	-778.26385	
2639	26.380	-780.03534	89.93449	-626.92749	790.51929	87.80596	-603.83862	-710.95850	-45.05972	501.90683	703.45923	-58.47298	604.01837	13.73421	1416.64197	-778.98505	
2640	26.390	-780.04559	89.73964	-627.03729	790.51746	87.60837	-603.87762	-710.90918	-44.95555	501.91306	703.52649	-58.26601	604.04968	13.69261	1416.26038	-779.61554	
2641	26.400	-780.02100	89.58504	-627.12054	790.53772	87.52166	-603.92566	-710.84735	-44.85560	501.83585	703.49457	-58.03906	604.02716	13.57796	1415.99487	-780.44141	
2642	26.410	-780.05127	89.29526	-627.42932	790.60748	87.37529	-603.99304	-710.79797	-44.74496	501.78726	703.47693	-57.89624	603.96332	13.75595	1415.80273	-781.29285	
2643	26.420	-780.09509	89.25114	-627.51489	790.69617	87.15328	-604.02191	-710.78387	-44.62732	501.75494	703.30389	-57.75739	603.88562	13.70925	1415.58923	-781.88794	
2644	26.430	-780.09143	88.71182	-627.54926	790.68884	86.93542	-604.10400	-710.81006	-44.57906	501.78720	703.24750	-57.62693	603.90961	13.69748	1415.04346	-782.55499	
2645	26.440	-779.99725	88.24912	-627.57428	790.57098	86.59245	-604.17926	-710.76764	-44.47218	501.75797	703.24927	-57.52370	603.93103	13.72391	1414.78796	-782.73242	
2646	26.450	-779.84607	88.23116	-627.28888	790.47339	86.24799	-604.27301	-710.76514	-44.28554	501.71799	703.31628	-57.34937	603.96094	13.73044	1414.38318	-783.01501	
2647	26.460	-779.78546	87.99940	-627.47260	790.55664	85.98843	-604.50250	-710.67523	-44.08030	501.73849	703.30359	-57.19853	603.91095	13.68331	1414.03931	-783.32629	
2648	26.470	-779.88519	87.71277	-627.82745	790.60895	85.73124	-604.51489	-710.72998	-43.77822	501.63675	703.03973	-56.78957	603.91907	13.64091	1413.78186	-783.74103	
2649	26.480	-779.82916	87.24323	-627.66510	790.73987	85.37875	-604.63055	-710.59283	-43.69757	501.64655	703.13910	-56.32383	603.74084	13.62386	1413.36633	-784.20862	
2650	26.490	-779.85602	86.99587	-627.80121	790.71765	84.95972	-604.72791	-710.53998	-43.63235	501.61307	703.38037	-55.89377	603.55518	13.55179	1412.92932	-785.00409	
2651	26.500	-779.99921	86.66763	-627.98822	790.64886	84.69859	-604.83398	-710.48700	-43.52754	501.64511	703.49194	-55.60307	603.59259	14.07007	1412.44812	-785.96631	
2652	26.510	-779.99811	86.52218	-628.02960	790.69836	84.31406	-604.98822	-710.26453	-43.19552	501.66489	703.45923	-55.39689	603.59869	14.10220	1412.07996	-786.97186	
2653	26.520	-779.98450	86.39907	-628.12701	790.76636	84.08199	-605.11401	-710.25714	-42.77361	501.60605	703.45050	-55.32435	603.57086	14.14662	1411.59436	-788.01550	
2654	26.530	-779.94745	86.09791	-628.31836	790.77960	83.84258	-605.27673	-710.46326	-42.54937	501.54089	703.42859	-55.19052	603.58405	14.41887	1411.48364	-789.25098	
2655	26.540	-779.97412	85.78342	-628.47070	790.77216	83.57735	-605.34979	-710.38104	-42.50461	501.47305	703.35486	-54.97737	603.57550	14.28764	1411.11572	-790.15320	
2656	26.550	-780.00580	85.56341	-628.58972	790.79651	83.35133	-605.45184	-710.61304	-41.81047	501.21887	703.52618	-54.90613	603.60455	14.29345	1410.59424	-791.35480	
2657	26.560	-780.00037	85.34209	-628.62665	790.83722	83.06956	-605.56635	-710.56384	-41.63625	501.23221	703.34753	-54.48801	603.40948	14.15589	1410.40784	-791.83087	
2658	26.570	-779.98425	85.01202	-628.69171	790.92358	82.73256	-605.64514	-710.51886	-41.56381	501.12228	703.39569	-54.15117	603.35175	14.38517	1410.00122	-792.61835	
2659	26.580	-779.79834	84.42681	-628.53516	790.88599	82.47560	-605.78979	-710.47217	-41.38485	501.06247	703.41809	-53.75132	603.23315	14.29279	1409.45911	-793.31750	
2660	26.590	-779.45087	83.93395	-628.23755	790.87726	82.20354	-605.88666	-710.48962	-41.20070	500.97833	703.56421	-53.35656	603.21674	14.47451	1409.21509	-793.78467	
2661	26.600	-779.38092	83.66713	-628.17426	790.79883	81.77834	-605.94946	-710.56549	-40.87727	500.91806	703.74506	-53.08901	603.24481	14.32969	1408.78467	-794.05695	
2662	26.610	-779.91364	83.49065	-628.94312	790.82477	81.43449	-605.98334	-710.58984	-40.53205	500.78894	703.78955	-52.83076	603.24719	14.27959	1408.23120	-794.66083	
2663	26.620	-780.00415	83.16850	-629.20612	790.74890	80.78113	-606.22162	-710.61737	-40.33541	500.64371	703.62848	-52.54964	603.19196	14.16600	1407.85852	-795.07306	
2664	26.630	-780.25525	82.87514	-629.19757	790.68005	80.39433	-606.48633	-710.67932	-40.04432	500.46695	703.49725	-52.36307	603.15204	13.82501	1407.43262	-795.76813	
2665	26.640	-780.10431	82.69579	-629.32294	790.67236	80.35509	-606.53479	-710.22394	-39.95190	500.63901	703.44922	-52.22149	603.11566	14.05876	1406.86572	-796.52063	
2666	26.650	-780.05261	82.53861	-629.39233	790.74896	80.08555	-606.54346	-710.16235	-39.87741	500.76813	703.52289	-52.05040	603.00378	14.50475	1406.54199	-797.54755	
2667	26.660	-779.85370	82.37325	-629.64777	790.81494	79.72719	-606.62976	-710.34857	-39.54421	500.62506	703.45673	-51.66603	602.90649	14.30871	1406.35657	-798.40723	
2668	26.670	-779.88184	82.11876	-629.73724	790.86798	79.40469	-606.76306	-710.34705	-39.29823	500.54892	703.34656	-51.29473	602.81805	14.36573	1406.18701	-799.58905	
2669	26.680	-780.18652	81.82721	-630.00171	790.76776	79.28113	-606.94562	-710.27533	-38.99539	500.51523	703.28363	-51.14316	602.78662	13.98183	1405.89514	-800.53009	
2670	26.690	-780.16956	81.06903	-630.03723	790.67346	78.89354	-607.10638	-710.66174	-38.91642	500.44177	703.31653	-50.87415	602.76111	14.28022	1405.55994	-801.35284	
2671	26.700	-780.33057	80.98843	-630.09784	790.44031	78.53931	-607.23199	-710.78601	-38.79301	500.47861	703.25238	-50.67931	602.77527	14.15451	1405.17224	-802.42664	
2672	26.710	-780.31537	80.79645	-630.17291	790.35950	78.38655	-607.26416	-710.91229	-38.61406	500.45026	703.12622	-50.34779	602.77374	14.18185	1404.75891	-802.77722	
2673	26.720	-780.35809	80.63316	-630.14124	790.22192	78.18525	-607.32758	-711.09583	-38.40892	500.35703	702.85577	-50.15488	602.69189	13.65870	1404.57556	-803.45099	
2674	26.730	-780.44604	80.08788	-630.20850	790.03149	77.86600	-607.46301	-711.15070	-38.25866	500.27133	702.92120	-49.71619	602.69116	13.45708	1404.24866	-803.84399	
2675	26.740	-780.47791	79.62073	-630.31256	789.99365	77.53916	-607.53717	-711.21808	-38.11020	500.18964	702.79907	-49.51652	602.57788	13.51980	1403.78894	-804.35022	
2676	26.750	-780.61444	79.20117	-630.28833	789.96722	77.39703	-607.55524	-711.35126	-37.94764	500.13806	702.75574	-49.34216	602.54639	13.45787	1403.33899	-804.62183	
2677	26.760	-780.73889	79.00034	-630.45123	789.87573	77.09790	-607.57904	-711.53448	-37.74345	500.05212	702.79327	-49.23223	602.62805	13.25298	1402.93909	-804.93518	
2678	26.770	-780.90869	78.80594	-630.50769	789.69763	76.81509	-607.68665	-711.64941	-37.43463	499.97455	702.62408	-49.02958	602.54865	13.23281	1402.74219	-805.28412	
2679	26.780	-781.03174	78.61649	-630.51263	789.37024	76.51187	-607.79321	-711.87469	-37.26028	499.88516	702.31830	-48.74673	602.53821	12.83332	1402.44556	-805.90387	
2680	26.790	-781.44708	78.49721	-630.46191	789.25220	76.41084	-607.93628	-712.17682	-37.03433	499.85458	702.03229	-48.49293	602.48608	12.82439	1402.07324	-806.59082	
2681	26.800	-781.36469	78.42961	-630.68201	789.00769	76.20670	-607.99097	-712.42798	-36.90794	499.86969	701.84052	-48.34386	602.39789	12.91089	1401.85693	-807.15814	
2682	26.810	-781.55676	78.23633	-630.78015	788.66180	75.88512	-608.10608	-712.65381	-36.85509	499.90634	701.69940	-48.28258	602.35431	12.62281	1401.65674	-807.85565	
2683	26.820	-781.74396	78.07803	-630.93286	788.51471	75.69208	-608.15100	-712.42023	-36.75673	499.97391	701.55591	-48.12044	602.30536	12.50840	1401.48962	-808.38318	
2684	26.830	-781.98505	77.88501	-631.14984	788.35510	75.56792	-608.15375	-712.53687	-36.61528	499.91089	701.39850	-47.95399	602.28583	12.33068	1401.31189	-808.85675	
2685	26.840	-782.36261	77.53210	-631.42480	788.22552	75.43678	-608.14056	-712.71259	-36.54838	499.90015	701.01312	-47.69878	602.31622	11.97347	1401.09070	-809.43433	
2686	26.850	-782.59991	77.17547	-631.68176	788.11475	75.27171	-608.19531	-713.12482	-36.47882	499.79199	700.81287	-47.59144	602.28333	11.94401	1400.75269	-809.89771	
2687	26.860	-782.73615	77.09736	-631.68408	787.78003	75.01527	-608.34680	-713.44739	-36.30984	499.86401	700.64319	-47.41977	602.26910	11.68450	1400.45374	-810.31519	
2688	26.870	-782.89691	77.30964	-631.40948	787.61066	74.87753	-608.39612	-713.91522	-35.88656	499.64975	700.44513	-47.39123	602.20374	11.48063	1400.34705	-810.56165	
2689	26.880	-783.09589	77.10312	-631.47382	787.43518	74.76421	-608.40967	-714.29590	-35.55371	499.62772	700.33679	-47.36860	602.14990	11.29729	1400.21313	-810.83148	
2690	26.890	-783.30975	76.92753	-631.49237	787.21033	74.67735	-608.44604	-714.55695	-35.47634	499.64685	700.00635	-47.25626	602.12701	11.04865	1400.07422	-811.02356	
2691	26.900	-783.67938	76.79603	-631.53290	786.96844	74.61715	-608.47693	-714.73413	-35.48990	499.67630	699.57837	-47.13769	602.07434	10.65832	1399.81165	-811.35663	
2692	26.910	-783.95850	76.70681	-631.72559	786.64191	74.44350	-608.59210	-715.07416	-35.41447	499.65469	699.34314	-46.96233	602.08246	10.37366	1399.58777	-811.68170	
2693	26.920	-784.53943	76.75057	-631.85193	786.17719	74.23882	-608.63763	-715.24249	-35.33163	499.66531	698.99414	-46.81866	602.06732	9.95299	1399.53357	-811.92365	
2694	26.930	-784.71423	76.73459	-631.84839	785.91797	74.15685	-608.65063	-715.37408	-35.31827	499.66010	698.64813	-46.80483	601.99652	9.70345	1399.42908	-812.14032	
2695	26.940	-784.71014	76.22778	-631.54529	785.63281	74.14630	-608.67670	-715.55328	-35.30778	499.66061	698.38922	-46.74498	601.99994	9.46486	1399.24597	-812.39496	
2696	26.950	-785.14392	76.15257	-631.47546	785.38348	74.10181	-608.70782	-715.84839	-35.27103	499.64667	698.02563	-46.73550	601.92859	9.13949	1399.03223	-812.74207	
2697	26.960	-785.51477	76.24174	-631.61823	785.01001	74.12138	-608.72339	-716.17377	-35.18637	499.66653	697.91907	-46.59833	601.90460	8.90849	1398.88867	-812.99902	
